# xmcd CD database file
#
# Track frame offsets:
#	150
#	17905
#	44860
#	61465
#	82836
#	111208
#	130422
#	149327
#	167058
#	194660
#	226870
#	257005
#	279141
#	315929
#
# Disc length: 4488 seconds
#
# Revision: 0
# Processed by: cddbd v1.5.1PL0 Copyright (c) Steve Scherf et al.
# Submitted via: CDex 1.51
#
DISCID=c311860e
DTITLE=Brad Mehldau - Umbria Jazz 25th Anniversary
DYEAR=1998
DGENRE=Jazz
TTITLE0=Weather Report - Non-Stop Home
TTITLE1=Charles Mingus - Remember Rockefeller at Attica
TTITLE2=Bill Evans - For all we know we may never meet again
TTITLE3=Gil Evans Orchestra - Orange was the color of ther dress then silk blue
TTITLE4=Miles Davis - You're under arrest
TTITLE5=Bobby McFerrin - Another night in Tunesia
TTITLE6=Joao Gilberto - I really samba (eu sambo mesmo)
TTITLE7=Shirley Horn - Makin' whoopie
TTITLE8=Cassandra Wilson - You don't know what love is
TTITLE9=Michel Petrucciani - Miles Davis licks
TTITLE10=Joe Henderson - No more blues (chega de saudade)
TTITLE11=Caetano Veloso - Haiti
TTITLE12=Roy Hargrove - Una mas
TTITLE13=Brad Mehldau - Lament for Linus
EXTD=YEAR: 1998
EXTT0=
EXTT1=
EXTT2=
EXTT3=
EXTT4=
EXTT5=
EXTT6=
EXTT7=
EXTT8=
EXTT9=
EXTT10=
EXTT11=
EXTT12=
EXTT13=
PLAYORDER=
